# xmcd CD database file
# Copyright (C) 1997 Ti Kan
#
# Track frame offsets:
#  200
#  18227
#  36862
#  55692
#  68542
#  85367
#  100270
#  110975
#  125377
#  141027
#  152530
#  165425
#  178547
#  189995
#  203605
#  220227
#
# Disc length: 3133 seconds
#
# Revision: 1
# Processed by: cddbd v1.4b41PL1 Copyright (c) Steve Scherf et al.
# Submitted via: CDWizzard Release:4.22
#
DISCID=cf0c3b10
DTITLE=Charles Brown - Boss of the Blues
DYEAR=1900
DGENRE=
TTITLE0=Driftin'
TTITLE1=Through the Courtesy of Love
TTITLE2=Since I Fell for You
TTITLE3=Are You My First Love?
TTITLE4=To You My Love
TTITLE5=Not in My Wildest Dreams
TTITLE6=Pledging My Love
TTITLE7=Tomorrow Night
TTITLE8=I'm Just Fooling Myself
TTITLE9=Glory of Love
TTITLE10=Blueberry Hill
TTITLE11=I Won't Cry Anymore
TTITLE12=I Miss You So
TTITLE13=Harbour Lights
TTITLE14=I Know
TTITLE15=Cottage for Sale
EXTD=
EXTT0=
EXTT1=
EXTT2=
EXTT3=
EXTT4=
EXTT5=
EXTT6=
EXTT7=
EXTT8=
EXTT9=
EXTT10=
EXTT11=
EXTT12=
EXTT13=
EXTT14=
EXTT15=
PLAYORDER=
